<svg width="173" height="40" viewBox="0 0 173 40" fill="none" xmlns="http://www.w3.org/2000/svg">
<path d="M74.7013 13.248V30H71.3413V19.104L66.8533 30H64.3093L59.7973 19.104V30H56.4373V13.248H60.2533L65.5813 25.704L70.9093 13.248H74.7013Z" fill="white"/>
<path d="M90.7432 16.704L82.5112 36.288H78.9352L81.8152 29.664L76.4872 16.704H80.2552L83.6872 25.992L87.1672 16.704H90.7432Z" fill="white"/>
<path d="M110.818 13.248V30H107.458V19.104L102.97 30H100.426L95.9144 19.104V30H92.5544V13.248H96.3704L101.698 25.704L107.026 13.248H110.818Z" fill="white"/>
<path d="M120.044 30.216C118.764 30.216 117.612 29.936 116.588 29.376C115.564 28.8 114.756 27.992 114.164 26.952C113.588 25.912 113.3 24.712 113.3 23.352C113.3 21.992 113.596 20.792 114.188 19.752C114.796 18.712 115.62 17.912 116.66 17.352C117.7 16.776 118.86 16.488 120.14 16.488C121.42 16.488 122.58 16.776 123.62 17.352C124.66 17.912 125.476 18.712 126.068 19.752C126.676 20.792 126.98 21.992 126.98 23.352C126.98 24.712 126.668 25.912 126.044 26.952C125.436 27.992 124.604 28.8 123.548 29.376C122.508 29.936 121.34 30.216 120.044 30.216ZM120.044 27.288C120.652 27.288 121.22 27.144 121.748 26.856C122.292 26.552 122.724 26.104 123.044 25.512C123.364 24.92 123.524 24.2 123.524 23.352C123.524 22.088 123.188 21.12 122.516 20.448C121.86 19.76 121.052 19.416 120.092 19.416C119.132 19.416 118.324 19.76 117.668 20.448C117.028 21.12 116.708 22.088 116.708 23.352C116.708 24.616 117.02 25.592 117.644 26.28C118.284 26.952 119.084 27.288 120.044 27.288Z" fill="white"/>
<path d="M136.813 16.512C138.397 16.512 139.677 17.016 140.653 18.024C141.629 19.016 142.117 20.408 142.117 22.2V30H138.757V22.656C138.757 21.6 138.493 20.792 137.965 20.232C137.437 19.656 136.717 19.368 135.805 19.368C134.877 19.368 134.141 19.656 133.597 20.232C133.069 20.792 132.805 21.6 132.805 22.656V30H129.445V16.704H132.805V18.36C133.253 17.784 133.821 17.336 134.509 17.016C135.213 16.68 135.981 16.512 136.813 16.512Z" fill="white"/>
<path d="M157.672 23.064C157.672 23.544 157.64 23.976 157.576 24.36H147.856C147.936 25.32 148.272 26.072 148.864 26.616C149.456 27.16 150.184 27.432 151.048 27.432C152.296 27.432 153.184 26.896 153.712 25.824H157.336C156.952 27.104 156.216 28.16 155.128 28.992C154.04 29.808 152.704 30.216 151.12 30.216C149.84 30.216 148.688 29.936 147.664 29.376C146.656 28.8 145.864 27.992 145.288 26.952C144.728 25.912 144.448 24.712 144.448 23.352C144.448 21.976 144.728 20.768 145.288 19.728C145.848 18.688 146.632 17.888 147.64 17.328C148.648 16.768 149.808 16.488 151.12 16.488C152.384 16.488 153.512 16.76 154.504 17.304C155.512 17.848 156.288 18.624 156.832 19.632C157.392 20.624 157.672 21.768 157.672 23.064ZM154.192 22.104C154.176 21.24 153.864 20.552 153.256 20.04C152.648 19.512 151.904 19.248 151.024 19.248C150.192 19.248 149.488 19.504 148.912 20.016C148.352 20.512 148.008 21.208 147.88 22.104H154.192Z" fill="white"/>
<path d="M172.845 16.704L164.613 36.288H161.037L163.917 29.664L158.589 16.704H162.357L165.789 25.992L169.269 16.704H172.845Z" fill="white"/>
<path d="M34.1422 5.85781C30.3647 2.08031 25.3422 0 20 0C14.6578 0 9.63531 2.08031 5.85781 5.85781C2.08031 9.63531 0 14.6578 0 20C0 25.3422 2.08039 30.3646 5.85781 34.1422C9.63523 37.9198 14.6578 40 20 40C25.3422 40 30.3647 37.9197 34.1422 34.1422C37.9197 30.3647 40 25.3422 40 20C40 14.6578 37.9196 9.63539 34.1422 5.85781Z" fill="#33CC95"/>
<g clip-path="url(#clip0_35212_417)">
<path d="M20.5714 8V33.1429" stroke="white" stroke-width="2" stroke-linecap="round" stroke-linejoin="round"/>
<path d="M26.2857 12.5714H17.7143C16.6534 12.5714 15.636 12.9929 14.8859 13.743C14.1357 14.4931 13.7143 15.5106 13.7143 16.5714C13.7143 17.6323 14.1357 18.6497 14.8859 19.3999C15.636 20.15 16.6534 20.5714 17.7143 20.5714H23.4286C24.4894 20.5714 25.5069 20.9929 26.257 21.743C27.0072 22.4932 27.4286 23.5106 27.4286 24.5714C27.4286 25.6323 27.0072 26.6497 26.257 27.3999C25.5069 28.15 24.4894 28.5714 23.4286 28.5714H13.7143" stroke="white" stroke-width="2" stroke-linecap="round" stroke-linejoin="round"/>
</g>
<defs>
<clipPath id="clip0_35212_417">
<rect width="27.4286" height="27.4286" fill="white" transform="translate(6.85715 6.85714)"/>
</clipPath>
</defs>
</svg>

